<?xml version="1.0" encoding="UTF-8"?>
<svg width="185px" height="160px" viewBox="0 0 185 160" version="1.1" xmlns="http://www.w3.org/2000/svg" xmlns:xlink="http://www.w3.org/1999/xlink">
    <g id="Page-1" stroke="none" stroke-width="1" fill="none" fill-rule="evenodd">
        <g id="logo" transform="translate(5.000000, 8.000000)" fill="#EB876C">
            <path d="M123.9533,104.6347 C123.9533,108.3417 120.9363,111.3587 117.2293,111.3587 L54.1613,111.3587 C50.4533,111.3587 47.4363,108.3417 47.4363,104.6347 L47.4363,48.6927 C47.4363,44.9847 50.4533,41.9687 54.1613,41.9687 L63.8543,41.9687 L63.8543,36.0357 C63.8543,34.6087 65.0123,33.4497 66.4403,33.4497 C67.8693,33.4497 69.0263,34.6087 69.0263,36.0357 L69.0263,41.9687 L83.1083,41.9687 L83.1083,36.0357 C83.1083,34.6087 84.2663,33.4497 85.6943,33.4497 C87.1233,33.4497 88.2813,34.6087 88.2813,36.0357 L88.2813,41.9687 L102.3633,41.9687 L102.3633,36.0357 C102.3633,34.6087 103.5213,33.4497 104.9493,33.4497 C106.3783,33.4497 107.5363,34.6087 107.5363,36.0357 L107.5363,41.9687 L117.2293,41.9687 C120.9363,41.9687 123.9533,44.9847 123.9533,48.6927 L123.9533,104.6347 Z M135.2533,84.9757 C132.4343,82.6007 130.8833,79.1757 130.8833,75.3347 L130.8833,33.4077 C130.8833,31.1207 131.3103,28.4597 132.0783,25.6557 C120.3543,14.2717 104.3703,7.2517 86.7383,7.2517 C69.8433,7.2517 54.4533,13.6887 42.8813,24.2407 L42.8813,37.0137 C42.8813,42.1387 38.2913,50.7367 31.5423,54.7097 L31.5423,74.4637 C32.7143,76.3097 34.5453,79.2147 36.0983,81.7637 C36.8263,82.9597 37.2123,84.3337 37.2123,85.7367 L37.2123,114.5997 C49.1543,128.5877 66.9043,137.4677 86.7383,137.4677 C109.9893,137.4677 130.3813,125.2707 141.8983,106.9357 C141.9263,100.3627 141.9553,93.4887 141.9783,88.0817 C139.6613,87.6017 137.2653,86.6737 135.2533,84.9757 L135.2533,84.9757 Z" id="Fill-1"></path>
            <path d="M149.8034,77.7118 C150.4624,77.7118 151.1074,77.9438 151.6164,78.3768 C152.2444,78.9108 152.6084,79.6948 152.6044,80.5198 C152.6024,80.9618 152.4094,124.8368 152.4094,128.8838 C152.4094,131.5268 154.0814,138.3888 161.7184,138.3888 C164.5484,138.3888 166.5254,137.2968 167.7624,135.0518 C168.6384,133.4618 168.8464,131.8198 168.8804,131.5018 L168.8804,14.3118 C168.8724,14.1248 168.7674,11.9648 167.8224,9.9198 C166.6894,7.4718 164.9354,6.3308 162.3044,6.3308 C150.4904,6.3308 141.4754,25.5558 141.4754,33.4078 L141.4754,75.3348 C141.4754,76.2428 141.7804,76.6238 142.0784,76.8758 C143.6334,78.1928 147.6434,78.0338 149.3414,77.7498 C149.4954,77.7248 149.6494,77.7118 149.8034,77.7118 M161.7184,143.9808 C150.8624,143.9808 146.8174,134.7208 146.8174,128.8838 C146.8174,125.4548 146.9544,93.6238 146.9984,83.5398 C144.4134,83.5748 140.8744,83.1768 138.4764,81.1538 C136.7804,79.7238 135.8834,77.7108 135.8834,75.3348 L135.8834,33.4078 C135.8834,28.1258 138.7914,19.9988 142.9544,13.6448 C148.4074,5.3218 155.2794,0.7388 162.3044,0.7388 C167.1734,0.7388 170.9674,3.2338 172.9854,7.7668 C174.3724,10.8808 174.4664,13.8898 174.4714,14.2228 C174.4714,14.2398 174.4724,14.2568 174.4724,14.2738 L174.4724,131.6168 C174.4724,131.6738 174.4704,131.7318 174.4674,131.7878 C174.2094,136.0048 171.2124,143.9808 161.7184,143.9808" id="Fill-3"></path>
            <path d="M37.8815,37.0136 L37.8815,2.6416 C37.8815,1.1826 36.6995,0.0006 35.2405,0.0006 C33.7825,0.0006 32.6005,1.1826 32.6005,2.6416 L32.6005,37.0136 C32.6005,39.0976 28.2835,46.5976 23.9025,46.5976 C22.4435,46.5976 21.2605,47.7806 21.2605,49.2386 L21.2605,76.6926 C21.2605,77.1986 21.4055,77.6926 21.6785,78.1176 C21.7095,78.1646 24.5595,82.6086 26.9305,86.4796 L26.9305,124.3616 C26.9305,124.4716 26.9385,124.5866 26.9525,124.6976 C27.2485,127.0356 27.3605,133.8526 24.3615,137.2546 C23.0675,138.7236 21.2945,139.4376 18.9415,139.4376 C16.5875,139.4376 14.8135,138.7236 13.5195,137.2546 C10.5215,133.8526 10.6335,127.0356 10.9285,124.7016 C10.9435,124.5886 10.9505,124.4746 10.9505,124.3616 L10.9505,86.4796 C13.3215,82.6086 16.1725,78.1646 16.2025,78.1176 C16.4755,77.6926 16.6205,77.1986 16.6205,76.6926 L16.6205,49.2386 C16.6205,47.7806 15.4385,46.5976 13.9795,46.5976 C9.5985,46.5976 5.2815,39.0976 5.2815,37.0136 L5.2815,2.6416 C5.2815,1.1826 4.0995,0.0006 2.6405,0.0006 C1.1825,0.0006 0.0005,1.1826 0.0005,2.6416 L0.0005,37.0136 C0.0005,40.8306 4.7455,49.5466 11.3395,51.4906 L11.3395,75.9196 C10.3875,77.4106 7.9945,81.1766 6.0545,84.3636 C5.8025,84.7776 5.6695,85.2516 5.6695,85.7366 L5.6695,124.2056 C5.5035,125.6956 4.6695,135.1826 9.5445,140.7326 C11.8675,143.3776 15.0295,144.7186 18.9415,144.7186 C22.8525,144.7186 26.0135,143.3776 28.3375,140.7326 C33.2125,135.1826 32.3785,125.6956 32.2125,124.2056 L32.2125,85.7366 C32.2125,85.2516 32.0785,84.7776 31.8275,84.3636 C29.8875,81.1766 27.4935,77.4106 26.5425,75.9196 L26.5425,51.4906 C33.1355,49.5466 37.8815,40.8306 37.8815,37.0136" id="Fill-6"></path>
            <path d="M13.2712,39.6542 C14.7292,39.6542 15.9122,38.4712 15.9122,37.0132 L15.9122,2.6412 C15.9122,1.1822 14.7292,0.0012 13.2712,0.0012 C11.8132,0.0012 10.6302,1.1822 10.6302,2.6412 L10.6302,37.0132 C10.6302,38.4712 11.8132,39.6542 13.2712,39.6542" id="Fill-8"></path>
            <path d="M24.6105,39.6542 C26.0685,39.6542 27.2515,38.4712 27.2515,37.0132 L27.2515,2.6412 C27.2515,1.1822 26.0685,0.0012 24.6105,0.0012 C23.1525,0.0012 21.9695,1.1822 21.9695,2.6412 L21.9695,37.0132 C21.9695,38.4712 23.1525,39.6542 24.6105,39.6542" id="Fill-10"></path>
            <path d="M113.3757,104.0175 C111.6807,104.0175 110.3057,102.6435 110.3057,100.9485 C110.3057,99.2525 111.6807,97.8785 113.3757,97.8785 C115.0707,97.8785 116.4447,99.2525 116.4447,100.9485 C116.4447,102.6435 115.0707,104.0175 113.3757,104.0175 M104.1487,104.0175 C102.4537,104.0175 101.0787,102.6435 101.0787,100.9485 C101.0787,99.2525 102.4537,97.8785 104.1487,97.8785 C105.8437,97.8785 107.2187,99.2525 107.2187,100.9485 C107.2187,102.6435 105.8437,104.0175 104.1487,104.0175 M94.9217,104.0175 C93.2267,104.0175 91.8527,102.6435 91.8527,100.9485 C91.8527,99.2525 93.2267,97.8785 94.9217,97.8785 C96.6167,97.8785 97.9917,99.2525 97.9917,100.9485 C97.9917,102.6435 96.6167,104.0175 94.9217,104.0175 M85.6947,104.0175 C83.9997,104.0175 82.6257,102.6435 82.6257,100.9485 C82.6257,99.2525 83.9997,97.8785 85.6947,97.8785 C87.3907,97.8785 88.7647,99.2525 88.7647,100.9485 C88.7647,102.6435 87.3907,104.0175 85.6947,104.0175 M76.4687,104.0175 C74.7727,104.0175 73.3987,102.6435 73.3987,100.9485 C73.3987,99.2525 74.7727,97.8785 76.4687,97.8785 C78.1637,97.8785 79.5377,99.2525 79.5377,100.9485 C79.5377,102.6435 78.1637,104.0175 76.4687,104.0175 M67.2417,104.0175 C65.5457,104.0175 64.1717,102.6435 64.1717,100.9485 C64.1717,99.2525 65.5457,97.8785 67.2417,97.8785 C68.9367,97.8785 70.3117,99.2525 70.3117,100.9485 C70.3117,102.6435 68.9367,104.0175 67.2417,104.0175 M58.0147,104.0175 C56.3187,104.0175 54.9447,102.6435 54.9447,100.9485 C54.9447,99.2525 56.3187,97.8785 58.0147,97.8785 C59.7097,97.8785 61.0837,99.2525 61.0837,100.9485 C61.0837,102.6435 59.7097,104.0175 58.0147,104.0175 M117.2297,47.1405 L107.5357,47.1405 L107.5357,52.1895 C107.5357,53.6185 106.3777,54.7765 104.9497,54.7765 C103.5217,54.7765 102.3637,53.6185 102.3637,52.1895 L102.3637,47.1405 L88.2807,47.1405 L88.2807,52.1895 C88.2807,53.6185 87.1237,54.7765 85.6947,54.7765 C84.2667,54.7765 83.1087,53.6185 83.1087,52.1895 L83.1087,47.1405 L69.0267,47.1405 L69.0267,52.1895 C69.0267,53.6185 67.8687,54.7765 66.4407,54.7765 C65.0117,54.7765 63.8547,53.6185 63.8547,52.1895 L63.8547,47.1405 L54.1607,47.1405 C53.3057,47.1405 52.6087,47.8365 52.6087,48.6925 L52.6087,104.6345 C52.6087,105.4905 53.3057,106.1865 54.1607,106.1865 L117.2297,106.1865 C118.0847,106.1865 118.7807,105.4905 118.7807,104.6345 L118.7807,48.6925 C118.7807,47.8365 118.0847,47.1405 117.2297,47.1405" id="Fill-12"></path>
        </g>
    </g>
</svg>
